<svg xmlns="http://www.w3.org/2000/svg" width="50" height="50" viewBox="0 0 50 50"><path fill="#000" d="M1583.97,98.255a3.789,3.789,0,1,0,3.74,3.788A3.765,3.765,0,0,0,1583.97,98.255Zm-18.73,0a3.789,3.789,0,1,0,3.74,3.788A3.765,3.765,0,0,0,1565.24,98.255Zm-1.58-22.734h22.76l-5.17,9.472H1568.1Zm17.59,13.261a3.723,3.723,0,0,0,3.28-1.951l6.7-12.3a1.882,1.882,0,0,0-1.63-2.8h-27.72l-1.76-3.789H1554v3.789h3.75l6.74,14.379-2.53,4.622a3.8,3.8,0,0,0,3.28,5.627h22.47V92.571h-22.47l2.06-3.789h13.95Z" transform="translate(-1553.735 -67.938)"/></svg>