<svg xmlns="http://www.w3.org/2000/svg" width="16.19" height="16.19" viewBox="0 0 16.19 16.19"><path fill="#929292" fill-rule="evenodd" d="M1515.05,4643.52a1.1,1.1,0,0,0,1.11.84h5.59v4.93h3.02l0.09-.44a11.423,11.423,0,0,1,1.07-2.98,8,8,0,0,1,1.91-1.95h3.19v-10.83h-12.25c-2.4,0-3.95,6.3-3.95,8.97A4.725,4.725,0,0,0,1515.05,4643.52Zm13.14-9.37h1.73v8.62h-1.73v-8.62Zm-11.36,3.02c0.71-2.08,1.51-3.02,1.91-3.02h8.3v8.93a9.12,9.12,0,0,0-2.13,2.22,11.074,11.074,0,0,0-1.11,2.88h-0.98v-4.93h-6.66C1515.81,4642.99,1515.81,4640.28,1516.83,4637.17Z" transform="translate(-1514.84 -4633.09)"/></svg>
