<svg xmlns="http://www.w3.org/2000/svg" width="16.19" height="16.19" viewBox="0 0 16.19 16.19"><path fill="#929292" fill-rule="evenodd" d="M1467.82,4635.85a1.106,1.106,0,0,0-1.11-.84h-5.59v-4.93h-3.02l-0.09.44a11.65,11.65,0,0,1-1.06,2.98,7.991,7.991,0,0,1-1.91,1.95h-3.2v10.84h12.25c2.4,0,3.96-6.31,3.96-8.97A4.446,4.446,0,0,0,1467.82,4635.85Zm-13.14,9.37h-1.73v-8.61h1.73v8.61Zm11.37-3.02c-0.71,2.09-1.51,3.02-1.91,3.02h-8.3v-8.92a9.507,9.507,0,0,0,2.13-2.22,11.5,11.5,0,0,0,1.11-2.89h0.97v4.93h6.66C1467.07,4636.39,1467.07,4639.09,1466.05,4642.2Z" transform="translate(-1451.84 -4630.09)"/></svg>