<svg xmlns="http://www.w3.org/2000/svg" width="11.531" height="15.59" viewBox="0 0 11.531 15.59">
  <defs>
    <style>
      .cls-1 {
        fill: #5a5a5a;
        fill-rule: evenodd;
      }
    </style>
  </defs>
  <path class="cls-1" d="M337.187,4633.82a0.335,0.335,0,1,1,0-.67h1.21a2.258,2.258,0,0,1,2.147,2.37v6.09a2.272,2.272,0,0,1-2.146,2.38h-7.252a2.267,2.267,0,0,1-2.146-2.38v-6.09a2.266,2.266,0,0,1,2.145-2.37h1.213a0.335,0.335,0,1,1,0,.67h-1.213a1.6,1.6,0,0,0-1.466,1.7v6.09a1.588,1.588,0,0,0,1.467,1.7H338.4a1.6,1.6,0,0,0,1.467-1.7v-6.09a1.6,1.6,0,0,0-1.468-1.7h-1.21Zm-2.016-4.95v9.61a0.34,0.34,0,0,1-.679,0v-9.61A0.34,0.34,0,0,1,335.171,4628.87Zm-2.715,2.39a0.335,0.335,0,0,1-.479-0.03,0.342,0.342,0,0,1,.032-0.48l2.6-2.27a0.344,0.344,0,0,1,.447,0l2.6,2.27a0.342,0.342,0,0,1,.032.48,0.335,0.335,0,0,1-.479.03l-2.375-2.07Z" transform="translate(-329 -4628.41)"/>
</svg>
