<svg xmlns="http://www.w3.org/2000/svg" xmlns:xlink="http://www.w3.org/1999/xlink" width="1015px" height="285px" viewBox="0 0 1015 285">
    <path fill-rule="evenodd"  fill="#bbb" d="M1014.869,277.275 L793.20,277.275 L793.20,201.679 L893.688,83.157 L797.199,83.157 L797.199,8.321 L1011.830,8.321 L1011.830,73.660 L904.704,200.159 L1014.869,200.159 L1014.869,277.275 ZM581.623,148.876 L580.104,148.876 L583.903,277.275 L498.50,277.275 L498.50,8.321 L588.81,8.321 L664.817,144.697 L666.336,144.697 L662.538,8.321 L748.390,8.321 L748.390,277.275 L656.80,277.275 L581.623,148.876 ZM262.907,8.321 L447.907,8.321 L447.907,83.537 L347.999,83.537 L347.999,106.709 L441.829,106.709 L441.829,176.987 L347.999,176.987 L347.999,202.59 L454.365,202.59 L454.365,277.275 L262.907,277.275 L262.907,8.321 ZM153.316,80.687 C144.448,76.764 136.471,74.799 129.384,74.799 C122.795,74.799 117.477,75.749 113.429,77.648 C109.375,79.548 107.351,82.652 107.351,86.955 C107.351,91.9 109.440,94.49 113.619,96.73 C117.797,98.103 124.570,100.631 133.942,103.670 C143.564,106.709 153.696,110.259 164.332,114.307 C174.969,118.361 184.781,123.614 193.773,130.72 C202.759,136.530 210.167,144.448 215.996,153.814 C221.819,163.186 224.733,174.838 224.733,188.763 C224.733,204.973 221.504,219.94 215.46,231.119 C208.588,243.151 200.100,253.152 189.594,261.130 C179.82,269.107 167.241,275.61 154.76,278.984 C140.905,282.907 127.484,284.872 113.809,284.872 C102.917,284.872 92.215,283.922 81.709,282.41 C71.197,280.147 61.65,277.375 51.319,273.725 C41.566,270.69 32.384,265.789 23.777,260.874 C15.165,255.960 7.443,250.481 0.605,244.433 L55.687,184.584 C62.15,191.422 70.437,197.500 80.949,202.818 C91.455,208.137 102.282,210.796 113.429,210.796 C118.492,210.796 123.116,209.911 127.294,208.131 C131.473,206.356 133.562,203.56 133.562,198.236 C133.562,195.702 132.862,193.547 131.473,191.766 C130.78,189.992 127.609,188.151 124.65,186.252 C120.516,184.353 115.643,182.257 109.440,179.972 C103.231,177.693 95.444,175.28 86.77,171.977 C76.960,168.938 68.223,165.323 59.866,161.133 C51.509,156.948 44.101,151.808 37.643,145.718 C31.185,139.628 26.57,132.339 22.258,123.839 C18.459,115.340 16.560,105.130 16.560,93.200 C16.560,76.461 19.979,62.252 26.816,50.582 C33.654,38.913 42.451,29.333 53.218,21.848 C63.979,14.363 76.70,8.974 89.496,5.673 C102.917,2.373 116.212,0.723 129.384,0.723 C147.107,0.723 165.151,4.142 183.516,10.980 C201.875,17.818 218.20,27.694 231.951,40.610 L175.729,97.972 C169.651,90.374 162.178,84.617 153.316,80.687 Z"/>
</svg>